HIERARCHY
ROOT Hips
{
	OFFSET 0.000000 104.230400 0.000000
	CHANNELS 6 Xposition Yposition Zposition Xrotation Yrotation Zrotation
	JOINT Spine
	{
		OFFSET 0.000000 10.181602 0.131500
		CHANNELS 3 Xrotation Yrotation Zrotation
		JOINT Spine1
		{
			OFFSET 0.000000 10.083496 -1.000800
			CHANNELS 3 Xrotation Yrotation Zrotation
			JOINT Spine2
			{
				OFFSET 0.000000 9.100006 -1.373400
				CHANNELS 3 Xrotation Yrotation Zrotation
				JOINT Neck
				{
					OFFSET 0.000000 16.671707 -2.516200
					CHANNELS 3 Xrotation Yrotation Zrotation
					JOINT Head
					{
						OFFSET 0.000000 9.617905 1.685000
						CHANNELS 3 Xrotation Yrotation Zrotation
						JOINT RightEye
						{
							OFFSET -3.067600 6.409500 9.283500
							CHANNELS 3 Xrotation Yrotation Zrotation
							End Site
							{
								OFFSET 0.000000 13.794495 0.000000
							}
						}
						JOINT LeftEye
						{
							OFFSET 3.067600 6.409500 9.283600
							CHANNELS 3 Xrotation Yrotation Zrotation
							End Site
							{
								OFFSET 0.000000 13.794495 0.000000
							}
						}
						JOINT HeadTop_End
						{
							OFFSET 0.000000 17.815201 2.585000
							CHANNELS 3 Xrotation Yrotation Zrotation
							End Site
							{
								OFFSET 0.000000 13.794495 0.000000
							}
						}
					}
				}
				JOINT LeftShoulder
				{
					OFFSET 4.570400 10.945999 -2.628000
					CHANNELS 3 Xrotation Yrotation Zrotation
					JOINT LeftArm
					{
						OFFSET 10.592400 -0.524597 -2.232100
						CHANNELS 3 Xrotation Yrotation Zrotation
						JOINT LeftForeArm
						{
							OFFSET 27.841499 0.000000 0.000000
							CHANNELS 3 Xrotation Yrotation Zrotation
							JOINT LeftHand
							{
								OFFSET 28.328800 0.000000 0.000000
								CHANNELS 3 Xrotation Yrotation Zrotation
								JOINT LeftHandThumb1
								{
									OFFSET 2.466103 -1.576218 2.681689
									CHANNELS 3 Xrotation Yrotation Zrotation
									JOINT LeftHandThumb2
									{
										OFFSET 3.229782 -1.864716 1.864716
										CHANNELS 3 Xrotation Yrotation Zrotation
										JOINT LeftHandThumb3
										{
											OFFSET 2.652611 -1.531494 1.531488
											CHANNELS 3 Xrotation Yrotation Zrotation
											JOINT LeftHandThumb4
											{
												OFFSET 1.954605 -1.128494 1.128493
												CHANNELS 3 Xrotation Yrotation Zrotation
												End Site
												{
													OFFSET -0.000404 2.523392 0.000683
												}
											}
										}
									}
								}
								JOINT LeftHandIndex1
								{
									OFFSET 9.109299 -0.518112 2.259867
									CHANNELS 3 Xrotation Yrotation Zrotation
									JOINT LeftHandIndex2
									{
										OFFSET 3.676399 0.000000 0.000000
										CHANNELS 3 Xrotation Yrotation Zrotation
										JOINT LeftHandIndex3
										{
											OFFSET 2.883102 0.000000 0.000000
											CHANNELS 3 Xrotation Yrotation Zrotation
											JOINT LeftHandIndex4
											{
												OFFSET 2.392700 0.000000 0.000000
												CHANNELS 3 Xrotation Yrotation Zrotation
												End Site
												{
													OFFSET 0.000000 2.392700 0.001080
												}
											}
										}
									}
								}
								JOINT LeftHandMiddle1
								{
									OFFSET 9.533401 0.000000 0.000000
									CHANNELS 3 Xrotation Yrotation Zrotation
									JOINT LeftHandMiddle2
									{
										OFFSET 3.698196 0.000000 0.000000
										CHANNELS 3 Xrotation Yrotation Zrotation
										JOINT LeftHandMiddle3
										{
											OFFSET 2.950897 0.000000 0.000000
											CHANNELS 3 Xrotation Yrotation Zrotation
											JOINT LeftHandMiddle4
											{
												OFFSET 2.833900 0.000000 0.000000
												CHANNELS 3 Xrotation Yrotation Zrotation
												End Site
												{
													OFFSET 0.000000 2.833893 0.001278
												}
											}
										}
									}
								}
								JOINT LeftHandRing1
								{
									OFFSET 9.104500 -0.043060 -1.865119
									CHANNELS 3 Xrotation Yrotation Zrotation
									JOINT LeftHandRing2
									{
										OFFSET 3.153999 0.000000 0.000000
										CHANNELS 3 Xrotation Yrotation Zrotation
										JOINT LeftHandRing3
										{
											OFFSET 2.937698 0.000000 0.000000
											CHANNELS 3 Xrotation Yrotation Zrotation
											JOINT LeftHandRing4
											{
												OFFSET 2.647499 0.000000 0.000000
												CHANNELS 3 Xrotation Yrotation Zrotation
												End Site
												{
													OFFSET -0.000099 2.647507 0.001194
												}
											}
										}
									}
								}
								JOINT LeftHandPinky1
								{
									OFFSET 8.077797 -0.486984 -3.806321
									CHANNELS 3 Xrotation Yrotation Zrotation
									JOINT LeftHandPinky2
									{
										OFFSET 3.599998 0.000000 0.000000
										CHANNELS 3 Xrotation Yrotation Zrotation
										JOINT LeftHandPinky3
										{
											OFFSET 2.114197 0.000000 0.000000
											CHANNELS 3 Xrotation Yrotation Zrotation
											JOINT LeftHandPinky4
											{
												OFFSET 1.975700 0.000000 0.000000
												CHANNELS 3 Xrotation Yrotation Zrotation
												End Site
												{
													OFFSET 0.000000 1.975693 0.000892
												}
											}
										}
									}
								}
							}
						}
					}
				}
				JOINT RightShoulder
				{
					OFFSET -4.570000 10.946198 -2.628000
					CHANNELS 3 Xrotation Yrotation Zrotation
					JOINT RightArm
					{
						OFFSET -10.592800 -0.524796 -2.232100
						CHANNELS 3 Xrotation Yrotation Zrotation
						JOINT RightForeArm
						{
							OFFSET -27.841499 0.000000 0.000000
							CHANNELS 3 Xrotation Yrotation Zrotation
							JOINT RightHand
							{
								OFFSET -28.328800 0.000000 0.000000
								CHANNELS 3 Xrotation Yrotation Zrotation
								JOINT RightHandPinky1
								{
									OFFSET -8.076698 -0.486725 -3.806227
									CHANNELS 3 Xrotation Yrotation Zrotation
									JOINT RightHandPinky2
									{
										OFFSET -3.599998 0.000000 0.000000
										CHANNELS 3 Xrotation Yrotation Zrotation
										JOINT RightHandPinky3
										{
											OFFSET -2.114197 0.000000 0.000000
											CHANNELS 3 Xrotation Yrotation Zrotation
											JOINT RightHandPinky4
											{
												OFFSET -1.975700 0.000000 0.000000
												CHANNELS 3 Xrotation Yrotation Zrotation
												End Site
												{
													OFFSET 0.000000 1.975693 0.000919
												}
											}
										}
									}
								}
								JOINT RightHandRing1
								{
									OFFSET -9.103600 -0.043030 -1.865120
									CHANNELS 3 Xrotation Yrotation Zrotation
									JOINT RightHandRing2
									{
										OFFSET -3.153999 0.000000 0.000000
										CHANNELS 3 Xrotation Yrotation Zrotation
										JOINT RightHandRing3
										{
											OFFSET -2.937698 0.000000 0.000000
											CHANNELS 3 Xrotation Yrotation Zrotation
											JOINT RightHandRing4
											{
												OFFSET -2.647499 0.000000 0.000000
												CHANNELS 3 Xrotation Yrotation Zrotation
												End Site
												{
													OFFSET 0.000000 2.647507 0.001231
												}
											}
										}
									}
								}
								JOINT RightHandMiddle1
								{
									OFFSET -9.532501 0.000000 0.000000
									CHANNELS 3 Xrotation Yrotation Zrotation
									JOINT RightHandMiddle2
									{
										OFFSET -3.698196 0.000000 0.000000
										CHANNELS 3 Xrotation Yrotation Zrotation
										JOINT RightHandMiddle3
										{
											OFFSET -2.950897 0.000000 0.000000
											CHANNELS 3 Xrotation Yrotation Zrotation
											JOINT RightHandMiddle4
											{
												OFFSET -2.833900 0.000000 0.000000
												CHANNELS 3 Xrotation Yrotation Zrotation
												End Site
												{
													OFFSET 0.000000 2.833893 0.001318
												}
											}
										}
									}
								}
								JOINT RightHandIndex1
								{
									OFFSET -9.108299 -0.517853 2.259859
									CHANNELS 3 Xrotation Yrotation Zrotation
									JOINT RightHandIndex2
									{
										OFFSET -3.676399 0.000000 0.000000
										CHANNELS 3 Xrotation Yrotation Zrotation
										JOINT RightHandIndex3
										{
											OFFSET -2.883102 0.000000 0.000000
											CHANNELS 3 Xrotation Yrotation Zrotation
											JOINT RightHandIndex4
											{
												OFFSET -2.392700 0.000000 0.000000
												CHANNELS 3 Xrotation Yrotation Zrotation
												End Site
												{
													OFFSET 0.000000 2.392700 0.001113
												}
											}
										}
									}
								}
								JOINT RightHandThumb1
								{
									OFFSET -2.464798 -1.573944 2.681868
									CHANNELS 3 Xrotation Yrotation Zrotation
									JOINT RightHandThumb2
									{
										OFFSET -3.229782 -1.864716 1.864716
										CHANNELS 3 Xrotation Yrotation Zrotation
										JOINT RightHandThumb3
										{
											OFFSET -2.652542 -1.531448 1.531448
											CHANNELS 3 Xrotation Yrotation Zrotation
											JOINT RightHandThumb4
											{
												OFFSET -1.954605 -1.128494 1.128493
												CHANNELS 3 Xrotation Yrotation Zrotation
												End Site
												{
													OFFSET 0.000412 2.523392 0.000704
												}
											}
										}
									}
								}
							}
						}
					}
				}
			}
		}
	}
	JOINT LeftUpLeg
	{
		OFFSET 8.207800 -6.751701 -1.599600
		CHANNELS 3 Xrotation Yrotation Zrotation
		JOINT LeftLeg
		{
			OFFSET 0.000002 -44.363201 0.854400
			CHANNELS 3 Xrotation Yrotation Zrotation
			JOINT LeftFoot
			{
				OFFSET -0.000002 -44.386002 -3.550900
				CHANNELS 3 Xrotation Yrotation Zrotation
				JOINT LeftToeBase
				{
					OFFSET 0.000000 -8.728700 10.710600
					CHANNELS 3 Xrotation Yrotation Zrotation
					JOINT LeftToe_End
					{
						OFFSET 0.000000 -0.000700 9.278101
						CHANNELS 3 Xrotation Yrotation Zrotation
						End Site
						{
							OFFSET 0.000000 9.278100 0.000000
						}
					}
				}
			}
		}
	}
	JOINT RightUpLeg
	{
		OFFSET -8.207800 -6.751701 -1.599600
		CHANNELS 3 Xrotation Yrotation Zrotation
		JOINT RightLeg
		{
			OFFSET 0.000002 -44.363201 0.855600
			CHANNELS 3 Xrotation Yrotation Zrotation
			JOINT RightFoot
			{
				OFFSET -0.000002 -44.385899 -3.552000
				CHANNELS 3 Xrotation Yrotation Zrotation
				JOINT RightToeBase
				{
					OFFSET 0.000000 -8.728700 10.710600
					CHANNELS 3 Xrotation Yrotation Zrotation
					JOINT RightToe_End
					{
						OFFSET 0.000000 -0.000700 9.278099
						CHANNELS 3 Xrotation Yrotation Zrotation
						End Site
						{
							OFFSET 0.000000 9.278100 0.000000
						}
					}
				}
			}
		}
	}
}
MOTION
Frames: 5
Frame Time: 0.033333
-0.851720 91.038376 1.018734 -6.100767 -43.174937 -4.143997 5.825296 4.796783 -1.140747 11.836538 9.037613 -3.083970 11.836533 9.037606 -3.083968 -1.434769 -0.422539 0.079380 -9.161965 19.579724 -0.319066 -0.000001 0.000000 0.000000 -0.000001 0.000000 0.000000 -0.000001 0.000000 0.000000 1.392487 -0.696036 -7.878121 -17.225681 0.898689 -63.191551 0.000001 -42.610576 0.000022 11.900951 -1.704053 21.975124 38.404279 -1.269646 14.611658 3.631952 6.093775 -0.671467 -10.094393 -7.227403 9.095595 -0.000001 0.000000 -0.000001 0.221390 -3.166077 -9.481584 0.086330 1.003099 -9.837816 0.145883 1.300537 -12.799412 -0.000003 0.000004 -0.000001 0.436859 5.174679 -8.894406 0.224009 1.606089 -15.879208 0.347213 1.988639 -19.805703 0.000003 0.000001 -0.000002 2.827851 12.581941 -16.002865 0.312130 1.888476 -18.768832 0.425884 2.194700 -21.960928 0.000002 0.000001 0.000000 2.480825 12.169210 -24.496851 0.246235 1.682240 -16.654083 1.033145 3.323965 -34.524182 -0.000002 -0.000001 -0.000000 1.410953 9.461518 9.792449 -1.910868 -22.605636 59.287442 0.000010 37.045949 0.000000 -7.499292 9.436047 4.506725 -0.701313 -2.585888 14.662890 0.245823 -1.494558 18.679948 0.689148 -2.439988 31.539249 -0.000000 0.000001 0.000001 0.204254 -3.829866 7.019409 0.413569 -1.920363 24.304890 0.225613 -1.433402 17.888706 0.000001 -0.000001 -0.000001 0.291004 -4.821901 5.957059 0.384915 -1.855651 23.435248 0.008281 -0.277911 3.413562 0.000001 -0.000002 -0.000002 0.245367 -4.322140 6.246036 0.048904 -0.673866 8.301507 0.047673 -0.665331 8.195703 0.000002 0.000000 -0.000000 -16.380291 1.669840 -6.671169 11.172380 -26.973535 -3.853785 -6.427457 -2.791311 -13.487032 -0.000001 -0.000000 0.000002 -35.324615 3.365264 15.144853 49.805002 -9.566118 -0.170867 -11.419453 -3.992760 -7.667842 -2.319079 -0.000007 -0.000001 0.000000 0.000002 -0.000000 -11.342318 -11.156547 -18.038704 48.998384 -7.669804 -0.413906 -29.166748 -5.900219 18.851469 -1.784963 0.000010 0.000001 0.000000 -0.000000 -0.000000 
0.447745 90.238686 -1.409377 -4.954273 -42.776283 -2.307699 6.344471 4.542645 -1.140429 11.650033 8.675988 -2.933026 11.654764 8.678407 -2.933657 -0.973725 -0.344648 -0.045675 -10.186249 19.687291 -0.740585 -0.000000 -0.000000 -0.000000 -0.000000 -0.000000 -0.000000 -0.000000 -0.000000 -0.000000 1.332142 -2.479436 -8.536273 -15.754376 -1.704601 -61.914210 -0.000000 -40.061266 0.000000 8.703906 -4.218189 21.284394 37.011432 -1.124808 14.335203 4.642506 9.517077 -0.675009 -11.362388 -10.985058 11.876265 0.000001 0.000000 -0.000000 -0.477230 -2.102499 -17.485660 0.088574 1.015930 -9.964969 0.193064 1.493031 -14.734600 -0.000003 -0.000001 -0.000001 0.732655 5.614631 -14.985413 0.264776 1.742983 -17.274226 0.362374 2.030228 -20.237951 -0.000000 -0.000001 0.000000 3.936267 11.902718 -24.815477 0.447549 2.247664 -22.520073 0.420427 2.181142 -21.818010 -0.000004 -0.000002 -0.000002 0.142282 8.093289 -26.653685 0.357775 2.017724 -20.107974 1.042577 3.337611 -34.686528 0.000001 -0.000001 -0.000003 1.335287 11.246866 9.434522 -0.036364 -19.178276 59.739341 0.000002 35.910215 0.000002 -10.430192 9.507030 3.635850 -1.138125 -2.237708 11.509950 0.363133 -1.804601 22.753240 0.645600 -2.367630 30.500900 -0.000000 -0.000000 -0.000002 -0.067594 -2.212342 11.793267 0.339412 -1.747005 21.988015 0.204375 -1.365862 17.019079 0.000002 -0.000000 0.000001 0.229993 -3.829058 8.646459 0.335223 -1.736581 21.849854 0.009682 -0.300407 3.690252 -0.000003 0.000001 0.000002 0.342279 -3.975197 9.947609 0.037761 -0.592463 7.292748 0.046864 -0.659734 8.126239 -0.000000 0.000001 0.000000 -15.848464 1.569286 -6.621095 14.457791 -31.527258 -1.589759 -6.695418 -5.415618 -11.187462 0.000001 0.000000 0.000001 -38.023253 2.457073 13.587926 49.660335 -8.385797 0.229708 -8.632002 -4.010963 -8.288289 -2.449287 -0.000003 -0.000002 -0.000000 -0.000001 0.000000 -15.981898 -10.054876 -18.909995 53.316078 -7.637871 -0.464307 -29.822993 -6.510653 18.157537 -1.927356 -0.000001 0.000003 -0.000000 -0.000001 0.000000 
1.934707 89.666809 -3.712665 -3.542385 -41.753575 -0.003810 6.939754 4.393159 -1.206774 11.509631 8.355652 -2.799311 11.518750 8.360677 -2.801172 -0.491313 -0.320969 -0.250323 -11.533692 19.148712 -1.280697 -0.000001 0.000000 0.000000 -0.000001 0.000000 0.000000 -0.000001 0.000000 0.000000 1.221362 -4.429827 -9.615307 -14.579785 -4.905315 -60.363778 0.000014 -37.281577 0.000019 4.803595 -6.431529 19.697350 35.617405 -0.984104 14.056037 5.613830 12.464381 -0.654245 -12.135005 -12.639638 13.237328 -0.000000 -0.000001 0.000001 -1.027418 -0.727324 -26.899073 0.084509 0.992540 -9.733287 0.249402 1.692770 -16.761436 0.000001 -0.000001 0.000001 0.963242 5.824044 -20.382463 0.291046 1.825275 -18.118060 0.367045 2.042822 -20.369385 -0.000002 -0.000002 -0.000002 4.813935 11.513263 -32.191255 0.600887 2.586366 -26.154794 0.407758 2.149265 -21.482871 -0.000000 0.000001 -0.000000 -2.035208 4.747290 -28.537302 0.489421 2.345993 -23.564515 1.056735 3.357933 -34.928932 0.000001 -0.000002 0.000002 1.286261 13.233979 8.917055 1.919858 -15.586813 60.288072 -0.000004 34.229578 0.000016 -13.339081 9.821642 2.969515 -1.526582 -1.035419 1.819962 0.561116 -2.218106 28.389714 0.636124 -2.351496 30.270941 0.000000 -0.000002 -0.000000 -0.751201 -0.504720 17.787481 0.360571 -1.798485 22.671775 0.179794 -1.282852 15.955788 0.000001 -0.000001 0.000003 -0.069457 -2.246478 12.284268 0.285085 -1.605952 20.130832 0.010260 -0.309356 3.800409 -0.000000 -0.000000 0.000000 0.351438 -3.568883 13.155716 0.044712 -0.644462 7.936844 0.045488 -0.650073 8.006392 -0.000002 -0.000000 0.000001 -15.317022 1.470943 -6.567962 17.807403 -35.232609 0.753973 -6.422017 -9.164357 -7.532631 0.000001 -0.000001 0.000000 -40.679319 2.084180 11.886941 48.485419 -7.381320 0.035254 -5.148415 -4.824212 -8.683649 -2.964780 0.000006 -0.000002 -0.000000 -0.000002 -0.000000 -20.322538 -9.007182 -20.076882 56.586973 -7.758909 -0.416518 -29.815104 -7.251789 17.495716 -1.959593 -0.000009 0.000001 -0.000000 -0.000001 -0.000000 
3.514900 89.415276 -5.535920 -1.783846 -39.827557 2.759806 7.397006 4.281677 -1.417966 11.340558 8.059825 -2.686670 11.353759 8.067200 -2.690163 0.000915 -0.361589 -0.487653 -12.808302 17.844979 -1.873296 0.000000 -0.000000 -0.000000 0.000000 -0.000000 -0.000000 0.000000 -0.000000 -0.000000 1.037258 -6.485034 -10.900800 -13.481556 -8.375338 -58.805675 -0.000005 -34.457813 -0.000009 0.330108 -8.134122 17.056975 34.222236 -0.847441 13.773705 6.428088 14.648992 -0.483720 -12.380479 -11.775956 13.011043 -0.000000 0.000000 -0.000000 -1.111276 0.801545 -35.582499 0.093148 1.041636 -10.219802 0.305687 1.869385 -18.572089 -0.000001 0.000001 0.000002 1.277577 6.261856 -24.818910 0.335732 1.956485 -19.472144 0.374902 2.063856 -20.588883 -0.000001 -0.000003 -0.000002 5.353355 11.293895 -36.884026 0.760888 2.889133 -29.503596 0.402463 2.135762 -21.341112 0.000001 0.000002 0.000002 -3.578998 2.495417 -29.549130 0.611077 2.606981 -26.379517 1.079213 3.389841 -35.310814 -0.000003 -0.000001 -0.000001 1.298402 15.048677 8.404769 3.912925 -11.803987 60.820273 0.000004 31.987644 -0.000011 -15.937777 10.182129 3.151346 -1.046035 0.405275 -12.939358 0.772716 -2.571067 33.450807 0.657007 -2.386882 30.776050 -0.000000 0.000001 0.000000 -1.189143 0.128875 20.902691 0.472480 -2.045744 26.007407 0.161555 -1.217241 15.119529 -0.000002 -0.000002 -0.000001 -0.426919 -1.032664 14.538681 0.247764 -1.500287 18.754214 0.010168 -0.307875 3.782085 -0.000000 0.000000 -0.000002 0.366885 -3.623101 13.540538 0.059960 -0.745732 9.194249 0.043051 -0.632411 7.787455 0.000001 -0.000000 0.000003 -14.785961 1.374881 -6.511753 20.000030 -37.229780 2.096111 -5.699970 -12.706920 -3.866808 -0.000000 -0.000000 -0.000000 -43.446693 2.294055 10.042070 46.606909 -6.889656 -0.871579 -1.302313 -6.389370 -9.931361 -3.194739 -0.000008 -0.000005 0.000000 0.000002 0.000000 -24.072225 -8.130587 -21.753350 58.535937 -8.003190 -0.193275 -29.166339 -8.221059 17.054887 -1.954202 0.000007 0.000004 0.000000 -0.000001 -0.000000 
5.046850 89.462158 -6.658868 0.131477 -36.950599 5.532809 7.529667 4.144220 -1.663349 11.068947 7.758823 -2.585671 11.085813 7.767960 -2.590651 0.475169 -0.457353 -0.697920 -13.653814 15.871498 -2.433173 -0.000001 -0.000000 0.000001 -0.000001 -0.000000 0.000001 -0.000001 -0.000000 0.000001 0.808474 -8.527425 -11.999799 -12.082924 -11.602698 -57.685647 -0.000004 -31.750674 0.000010 -4.228240 -9.206875 13.627889 32.826029 -0.714596 13.487906 7.022899 16.075224 -0.106128 -11.772400 -8.337667 11.243863 0.000001 0.000000 -0.000000 -0.788468 2.017849 -41.492395 0.137128 1.261405 -12.407930 0.360362 2.024776 -20.181368 -0.000002 -0.000003 -0.000001 1.802880 7.040339 -28.400538 0.415761 2.169444 -21.695058 0.394399 2.114998 -21.123415 0.000002 0.000001 -0.000002 5.550404 11.189139 -38.765968 0.897916 3.118589 -32.118022 0.409307 2.153148 -21.523555 -0.000000 -0.000002 -0.000000 -4.223308 1.413450 -29.521601 0.691982 2.763957 -28.106242 1.098105 3.416295 -35.629122 0.000001 -0.000001 0.000002 1.353589 16.382603 8.133808 5.909732 -7.887492 61.113090 0.000005 29.387442 0.000001 -18.203462 9.897218 4.871587 -0.013836 0.876827 -26.721348 0.948289 -2.818604 37.183748 0.698058 -2.454440 31.748024 -0.000001 0.000002 -0.000001 -0.893396 -0.560798 20.347280 0.640490 -2.358949 30.377140 0.159096 -1.208127 15.003578 -0.000000 0.000001 -0.000001 -0.523672 -0.836024 15.488646 0.238707 -1.473335 18.404949 0.010780 -0.317033 3.894758 -0.000002 -0.000001 0.000001 0.458600 -4.306387 12.263733 0.084019 -0.881570 10.888045 0.042986 -0.631994 7.782318 0.000000 0.000000 -0.000000 -14.255271 1.281162 -6.452530 20.637820 -37.726099 2.087512 -4.303713 -15.858396 -0.462003 -0.000000 0.000002 0.000000 -46.042063 3.013450 7.877843 44.411529 -6.517615 -1.993656 1.638383 -7.787209 -11.113111 -2.411514 0.000016 -0.000001 0.000000 -0.000001 0.000000 -26.932522 -7.595753 -23.810304 59.213874 -8.278523 0.217302 -28.093324 -9.521668 16.923315 -1.942154 0.000019 -0.000002 -0.000000 -0.000002 -0.000000 
